<?xml version="1.0" encoding="UTF-8"?>
<svg width="216" height="40" viewBox="0 0 216 40" fill="none" xmlns="http://www.w3.org/2000/svg" role="img" aria-labelledby="title desc">
  <title id="title">Pediatrack</title>
  <desc id="desc">Logotipo de Pediatrack</desc>
  <defs>
    <linearGradient id="g" x1="0" y1="0" x2="216" y2="40" gradientUnits="userSpaceOnUse">
      <stop offset="0%" stop-color="#0F4C81"/>
      <stop offset="50%" stop-color="#1F8A70"/>
      <stop offset="100%" stop-color="#FFAC3F"/>
    </linearGradient>
  </defs>
  <g>
    <path d="M16 6c5.523 0 10 4.477 10 10s-4.477 10-10 10S6 21.523 6 16 10.477 6 16 6Z" fill="url(#g)" opacity="0.18"/>
    <circle cx="16" cy="16" r="6" fill="url(#g)"/>
    <rect x="28" y="14.5" width="178" height="3" rx="1.5" fill="url(#g)"/>
  </g>
  <g fill="#0F4C81">
    <path d="M56 30V10h6.9c2.52 0 4.46.6 5.82 1.8 1.36 1.2 2.04 2.84 2.04 4.9 0 2.14-.71 3.82-2.14 5.04-1.42 1.22-3.42 1.82-5.98 1.82H62.5V30H56Zm6.5-11.06h1.71c1.18 0 2.06-.23 2.66-.68.6-.46.9-1.1.9-1.92 0-.86-.3-1.51-.9-1.96-.6-.44-1.48-.66-2.66-.66H62.5v5.22Z"/>
    <path d="M79.78 30.4c-2.3 0-4.13-.73-5.48-2.2-1.36-1.46-2.04-3.4-2.04-5.8 0-2.42.7-4.36 2.08-5.84 1.38-1.48 3.23-2.22 5.54-2.22 2.3 0 4.14.74 5.52 2.22 1.38 1.48 2.08 3.42 2.08 5.84 0 2.4-.69 4.34-2.06 5.8-1.36 1.47-3.2 2.2-5.52 2.2Zm0-4.22c.98 0 1.76-.37 2.34-1.12.58-.75.88-1.78.88-3.08 0-1.32-.3-2.36-.88-3.12a2.95 2.95 0 0 0-2.34-1.14 2.92 2.92 0 0 0-2.32 1.14c-.58.76-.86 1.8-.86 3.12 0 1.3.28 2.33.86 3.08.58.75 1.35 1.12 2.32 1.12Z"/>
    <path d="M96.14 30V12.4h5.9c2.3 0 4.08.54 5.34 1.62 1.26 1.08 1.88 2.58 1.88 4.5 0 1.94-.63 3.44-1.9 4.5-1.26 1.06-3.04 1.6-5.34 1.6h-2.6V30h-3.28Zm3.28-7.1h2.28c.98 0 1.72-.22 2.22-.68.5-.46.76-1.12.76-2 0-.86-.25-1.52-.76-1.98-.5-.46-1.25-.7-2.22-.7h-2.28v5.36Z"/>
    <path d="M118.08 30V12.4h3.28V30h-3.28Z"/>
    <path d="M124.82 30l5.72-17.6h3.6L140 30h-3.44l-1.04-3.6h-6L128.48 30h-3.66Zm6.24-6.4h4.26l-2.12-7.28-2.14 7.28Z"/>
    <path d="M144.78 30V12.4h3.24l7.2 11.38V12.4h3.12V30h-3.24l-7.2-11.4V30h-3.12Z"/>
    <path d="M170.02 30V12.4h5.9c2.3 0 4.08.54 5.34 1.62 1.26 1.08 1.88 2.58 1.88 4.5 0 1.94-.63 3.44-1.9 4.5-1.26 1.06-3.04 1.6-5.34 1.6h-2.6V30h-3.28Zm3.28-7.1h2.28c.98 0 1.72-.23 2.22-.68.5-.46.76-1.12.76-2 0-.86-.25-1.52-.76-1.98-.5-.46-1.25-.7-2.22-.7h-2.28v5.36Z"/>
  </g>
</svg>
